<?xml version="1.0" standalone="no"?>
<!DOCTYPE svg PUBLIC "-//W3C//DTD SVG 20010904//EN"
 "http://www.w3.org/TR/2001/REC-SVG-20010904/DTD/svg10.dtd">
<svg version="1.0" xmlns="http://www.w3.org/2000/svg"
 width="448.000000pt" height="448.000000pt" viewBox="0 0 448.000000 448.000000"
 preserveAspectRatio="xMidYMid meet">

<g transform="translate(0.000000,448.000000) scale(0.100000,-0.100000)"
fill="#000000" stroke="none">
<path d="M2520 4259 c-58 -29 -118 -64 -135 -80 -27 -25 -71 -44 -245 -107
-30 -11 -118 -35 -194 -53 -206 -48 -260 -79 -448 -253 -67 -63 -103 -86 -221
-145 -78 -39 -164 -89 -190 -112 -66 -57 -109 -147 -151 -317 -19 -76 -58
-195 -87 -263 -58 -139 -99 -254 -99 -279 0 -26 -66 -156 -112 -217 -23 -32
-74 -96 -113 -143 -135 -163 -185 -254 -211 -384 -15 -70 -15 -83 1 -151 10
-46 29 -93 48 -122 28 -42 38 -49 79 -57 54 -9 61 -25 23 -50 -29 -19 -31 -29
-9 -51 21 -21 52 -14 107 26 69 50 93 111 61 157 -15 22 -21 23 -80 17 -61 -7
-64 -6 -94 23 -28 28 -30 35 -30 104 0 78 27 192 56 237 28 42 74 97 144 169
39 40 85 103 114 155 l49 89 22 -36 c17 -28 25 -65 33 -149 13 -140 6 -188
-51 -323 -24 -55 -26 -71 -23 -170 2 -60 7 -116 10 -125 5 -10 -12 -30 -57
-67 -112 -91 -439 -422 -433 -438 3 -8 -14 -45 -38 -82 -47 -71 -73 -124 -104
-212 -35 -97 -73 -233 -84 -302 -11 -61 -10 -69 6 -87 17 -19 18 -26 7 -81
-15 -73 -8 -100 23 -100 13 0 29 -7 36 -15 16 -20 27 -19 57 5 29 23 83 27 83
7 0 -8 9 -22 20 -32 11 -10 20 -28 20 -39 1 -65 41 -96 81 -60 13 12 23 15 27
7 4 -5 23 -18 42 -28 19 -10 51 -31 70 -47 26 -20 50 -29 85 -32 28 -3 77 -12
110 -20 66 -18 141 -21 149 -7 4 5 0 11 -6 14 -32 12 27 18 63 7 36 -12 41
-11 76 13 21 14 55 33 75 42 38 15 38 15 38 -9 0 -13 7 -29 15 -36 13 -11 23
-9 54 8 47 27 96 29 110 5 17 -30 32 1 66 135 9 34 24 78 35 96 24 43 76 173
90 224 14 56 82 116 120 108 18 -3 33 0 39 8 6 8 26 17 44 21 l32 8 -29 6
c-60 13 -301 -9 -501 -45 -44 -8 -118 -18 -165 -23 -154 -17 -281 -44 -303
-63 -22 -18 -21 -18 18 -3 22 8 76 19 120 24 44 6 96 13 115 17 19 4 32 4 29
0 -3 -3 -34 -12 -70 -19 -55 -11 -67 -18 -87 -47 -20 -30 -28 -35 -58 -32 -20
2 -34 -1 -34 -7 0 -6 -4 -11 -10 -11 -9 0 -120 -80 -120 -86 0 -2 23 10 51 27
61 36 117 38 110 4 -2 -11 -5 -46 -8 -77 -3 -32 -9 -58 -14 -58 -5 0 -9 -7 -9
-15 0 -8 9 -15 20 -15 11 0 20 -4 20 -10 0 -13 -6 -13 -43 4 -18 7 -52 19 -77
26 -71 19 -118 54 -129 97 -53 204 -56 221 -56 318 1 135 13 272 25 296 6 11
8 24 5 29 -4 6 16 38 43 73 27 34 86 116 131 182 100 146 194 271 261 346 47
54 52 57 106 61 39 3 59 10 66 21 5 10 18 17 29 17 10 0 43 11 72 25 44 22 71
27 172 31 l120 6 80 -40 80 -41 -40 0 c-48 -1 -234 -36 -243 -46 -10 -11 201
5 213 16 5 5 35 9 67 9 48 0 71 -7 145 -45 48 -25 119 -55 157 -66 60 -18 72
-19 94 -7 27 14 191 18 277 6 l50 -7 -49 16 -50 15 25 19 c13 10 30 19 37 19
6 0 12 4 12 9 0 10 -123 6 -140 -4 -6 -3 -10 3 -10 14 0 14 -5 19 -15 15 -8
-4 -15 -14 -15 -24 0 -30 -49 -42 -51 -12 0 10 -3 12 -6 5 -7 -19 -21 -16 -73
16 -26 16 -76 36 -111 45 -35 9 -73 23 -84 30 -11 7 -47 28 -80 46 -33 18 -82
50 -110 70 -27 20 -65 44 -82 54 -40 20 -43 48 -7 64 31 15 71 6 106 -24 15
-12 51 -30 80 -40 29 -9 66 -25 83 -36 42 -25 45 -23 24 19 -10 21 -20 58 -20
83 -1 25 -3 37 -6 28 -12 -46 -85 -2 -133 78 -30 50 -35 67 -34 119 1 64 42
171 70 182 21 8 62 -5 84 -27 26 -26 26 -44 0 -36 -11 3 -28 9 -39 12 -27 8
-65 -48 -56 -83 5 -22 7 -24 18 -9 10 13 18 14 45 7 29 -9 33 -8 28 5 -3 9 -6
20 -6 25 0 4 -8 6 -17 2 -14 -5 -15 -3 -7 6 9 10 17 10 32 2 20 -10 32 -50 32
-102 0 -30 15 -48 23 -27 2 7 11 -4 20 -24 16 -38 67 -111 73 -105 2 1 -4 26
-12 54 -18 62 -16 214 4 221 6 2 12 -4 12 -14 0 -34 22 -144 29 -144 4 0 8 30
9 66 3 85 15 109 29 57 7 -21 17 -63 23 -94 16 -80 37 -96 148 -114 130 -21
274 -24 296 -6 9 8 28 38 42 66 20 43 30 54 55 59 51 10 69 -7 70 -67 0 -29 3
-59 7 -67 7 -15 14 -17 85 -27 20 -3 37 -9 37 -14 0 -46 -40 -152 -81 -215
-27 -41 -47 -74 -45 -74 2 0 33 30 69 67 l66 67 50 -52 c55 -55 59 -56 121
-16 31 20 42 21 94 14 71 -10 114 4 51 16 -22 4 -66 8 -97 8 -32 -1 -58 1 -58
2 0 8 92 124 103 131 7 5 24 26 39 48 14 22 38 52 53 68 34 35 15 35 -22 0
-16 -16 -39 -37 -52 -48 l-24 -20 7 30 c6 28 5 28 -19 -10 -16 -25 -21 -42
-14 -46 14 -9 -8 -52 -24 -46 -6 2 -24 -12 -40 -30 -19 -22 -37 -32 -53 -31
-30 3 -30 3 2 74 14 33 30 70 35 84 7 22 7 23 -4 6 -6 -10 -22 -33 -33 -51
-12 -18 -25 -42 -29 -54 -3 -12 -11 -21 -16 -21 -5 0 -9 -16 -9 -35 0 -32 2
-35 30 -35 33 0 38 -14 16 -43 -13 -17 -17 -15 -58 27 -23 25 -48 46 -54 46
-8 0 -9 15 -2 51 14 79 25 99 50 99 36 1 56 22 69 73 6 26 16 50 22 54 17 11
39 -30 33 -62 -4 -19 -3 -25 3 -16 6 9 18 11 42 6 l34 -8 -23 19 c-23 19 -24
20 -5 52 14 24 25 32 47 32 26 0 28 -2 24 -32 l-5 -32 18 23 c11 14 23 20 31
15 14 -9 -10 26 -27 38 -17 12 -70 -4 -92 -29 -20 -21 -23 -22 -23 -6 0 11 5
24 12 31 9 9 9 12 0 12 -19 0 -14 52 8 88 13 20 28 32 42 32 20 0 20 1 4 13
-15 11 -16 24 -9 132 l8 120 27 -75 27 -75 -6 115 c-3 66 -12 127 -19 142 -8
15 -26 60 -40 100 -14 40 -37 95 -50 122 -14 26 -23 51 -20 54 10 9 63 -47 77
-80 8 -20 14 -25 20 -17 5 9 9 4 13 -14 3 -15 9 -39 13 -54 3 -16 5 -39 4 -52
-2 -16 1 -21 9 -16 9 6 11 26 6 73 -6 58 -12 72 -54 126 -26 33 -64 78 -84 99
l-38 39 30 30 c31 30 46 67 37 90 -3 8 -9 4 -15 -12 -6 -14 -11 -21 -11 -17
-1 5 -11 1 -23 -7 -33 -24 -129 -21 -155 3 -31 30 -160 114 -228 150 -41 22
-68 30 -85 26 -18 -4 -21 -3 -11 4 15 10 -21 22 -104 35 -30 5 -36 4 -25 -4
12 -9 10 -10 -10 -4 -14 4 -26 11 -28 15 -2 5 -10 9 -17 9 -8 0 -32 18 -54 40
l-40 41 -65 -7 c-43 -4 -82 -2 -112 6 -46 13 -46 13 -41 51 3 21 24 72 47 115
34 61 45 73 52 60 5 -9 15 -16 22 -16 17 0 96 -62 96 -75 0 -24 74 -53 131
-52 72 2 91 17 83 66 -5 32 -1 42 30 76 23 26 43 64 57 107 l20 66 57 11 c31
6 79 17 107 24 46 13 48 15 27 26 -12 7 -44 31 -71 55 -34 30 -62 46 -90 51
-42 7 -61 22 -44 34 24 15 57 113 77 226 2 17 8 38 11 48 4 9 3 17 -1 17 -5 0
-56 -23 -114 -51z m75 -19 c-3 -5 -11 -10 -16 -10 -6 0 -7 5 -4 10 3 6 11 10
16 10 6 0 7 -4 4 -10z m-95 -36 c-25 -15 -24 -15 15 -9 l40 5 -37 -20 c-21
-11 -38 -24 -38 -29 0 -4 -11 -13 -25 -19 -32 -15 -35 -15 -35 -2 0 17 72 90
89 90 11 -1 9 -5 -9 -16z m84 -21 c-16 -74 -39 -133 -51 -133 -9 0 -10 6 -3
26 14 36 13 44 -7 44 -13 0 -14 3 -6 11 6 6 10 17 8 23 -3 8 42 48 63 55 1 1
0 -11 -4 -26z m89 -292 c16 -10 25 -21 20 -24 -17 -9 -113 -31 -118 -25 -3 2
-2 19 1 36 6 28 11 32 38 32 17 0 44 -9 59 -19z m-244 -118 c16 -42 10 -73
-14 -74 -16 -1 -17 -2 -2 -6 21 -5 22 -17 3 -32 -11 -10 -19 -7 -36 11 -25 27
-22 78 6 109 23 25 30 24 43 -8z m21 -491 c0 -5 16 -15 36 -22 35 -14 35 -15
13 -21 -44 -13 -55 -9 -66 21 -9 25 -9 30 3 30 8 0 14 -4 14 -8z m-704 -29
c-10 -10 -19 5 -10 18 6 11 8 11 12 0 2 -7 1 -15 -2 -18z m544 1 c0 -2 -24 -4
-52 -4 -29 0 -48 4 -41 8 12 7 93 4 93 -4z m-475 -49 c29 -13 29 -13 5 -14
-14 -1 -38 8 -55 20 -28 19 -28 20 -5 14 14 -4 39 -13 55 -20z m799 3 c35 0
68 -8 104 -26 28 -14 50 -27 47 -30 -3 -3 -22 -6 -44 -8 -27 -2 -46 3 -61 16
-12 11 -43 22 -68 25 -66 9 -83 15 -76 26 3 5 15 7 26 3 12 -3 44 -6 72 -6z
m-324 -8 c13 -8 13 -10 -2 -10 -9 0 -20 5 -23 10 -8 13 5 13 25 0z m-550 -66
c-17 -15 -33 -24 -36 -21 -6 6 45 47 58 47 5 0 -5 -12 -22 -26z m750 17 c0 -4
-21 -16 -47 -26 -27 -10 -68 -29 -91 -42 -24 -14 -46 -22 -49 -19 -8 7 21 34
49 45 23 10 23 10 -4 10 -15 1 -38 -3 -53 -9 -14 -5 -24 -6 -21 -1 6 9 117 36
181 44 17 2 31 5 33 6 1 0 2 -3 2 -8z m-708 -41 c-17 -16 -22 -17 -22 -6 0 8
8 19 17 25 27 15 29 3 5 -19z m52 -37 c-74 -73 -186 -210 -211 -256 -8 -16
-17 -26 -20 -23 -8 8 39 84 92 146 62 73 187 200 199 200 4 0 -22 -30 -60 -67z
m263 61 c-3 -3 -12 -4 -19 -1 -8 3 -5 6 6 6 11 1 17 -2 13 -5z m-102 -25 c-44
-29 -85 -50 -85 -43 0 17 65 64 89 64 l26 0 -30 -21z m92 -24 c-32 -19 -61
-35 -65 -35 -11 1 101 70 113 70 6 0 -16 -16 -48 -35z m657 9 c21 -20 20 -24
-5 -24 -13 0 -18 4 -13 12 4 6 3 8 -4 5 -5 -4 -18 -4 -27 -1 -13 5 -14 8 -3
15 20 13 35 11 52 -7z m276 2 c0 -2 -8 -10 -17 -17 -16 -13 -17 -12 -4 4 13
16 21 21 21 13z m-1051 -43 c-24 -21 -62 -54 -83 -75 -43 -43 -61 -43 -29 0
17 23 137 112 152 112 2 0 -15 -17 -40 -37z m688 26 l28 -12 -25 -7 c-14 -5
-41 -9 -60 -9 -19 -1 -56 -12 -83 -25 -66 -33 -37 -2 32 34 64 33 70 34 108
19z m283 -19 c0 -5 -4 -10 -10 -10 -5 0 -10 5 -10 10 0 6 5 10 10 10 6 0 10
-4 10 -10z m-740 -10 c-8 -5 -19 -10 -25 -10 -5 0 -3 5 5 10 8 5 20 10 25 10
6 0 3 -5 -5 -10z m-12 -47 c-20 -21 -52 -56 -72 -78 -19 -22 -36 -35 -36 -28
0 14 121 143 134 143 5 0 -7 -17 -26 -37z m402 3 c0 -2 -9 -6 -20 -9 -11 -3
-18 -1 -14 4 5 9 34 13 34 5z m193 -11 c-1 -5 -15 -12 -29 -13 -15 -2 -42 -15
-59 -28 -49 -37 -76 -31 -32 7 45 41 126 63 120 34z m-693 -8 c0 -2 -10 -12
-22 -23 l-23 -19 19 23 c18 21 26 27 26 19z m754 -16 c14 -16 15 -19 2 -24 -9
-4 -16 3 -19 19 -5 29 -5 29 17 5z m46 -1 c6 -11 8 -20 6 -20 -3 0 -10 9 -16
20 -6 11 -8 20 -6 20 3 0 10 -9 16 -20z m-919 -7 c-6 -10 -28 -35 -49 -56 -21
-21 -63 -83 -92 -138 -61 -117 -80 -127 -24 -12 46 95 75 137 128 186 45 42
51 45 37 20z m120 -10 c-11 -21 -59 -73 -67 -73 -3 0 12 20 33 45 40 48 50 56
34 28z m698 -11 c0 -14 -2 -14 -8 2 -6 16 -9 17 -13 4 -7 -17 -48 -32 -48 -17
0 11 53 39 62 32 5 -2 8 -12 7 -21z m139 -107 c-6 -7 -58 77 -58 95 0 8 14 -9
31 -38 17 -29 29 -55 27 -57z m-669 68 c-34 -41 -60 -66 -64 -61 -3 3 11 22
32 42 40 38 55 47 32 19z m191 -18 c-7 -8 -17 -15 -22 -15 -11 0 14 29 26 30
5 0 3 -7 -4 -15z m284 -27 c-8 -28 -12 -33 -20 -25 -9 8 6 47 17 47 6 0 7 -10
3 -22z m-253 -25 c-12 -20 -14 -14 -5 12 4 9 9 14 11 11 3 -2 0 -13 -6 -23z
m112 -33 c-26 -45 -39 -58 -48 -50 -16 13 -28 -2 -43 -56 -7 -23 -19 -45 -27
-48 -26 -9 -18 36 15 88 24 37 36 47 50 43 14 -3 21 1 26 17 7 23 43 66 55 66
5 0 -8 -27 -28 -60z m271 -70 c16 -45 29 -100 30 -138 2 -34 1 -61 0 -59 -14
13 -84 245 -84 276 0 47 13 62 21 24 3 -15 18 -62 33 -103z m134 95 c-3 -3 -9
2 -12 12 -6 14 -5 15 5 6 7 -7 10 -15 7 -18z m-818 -4 c0 -6 -17 -30 -37 -54
-21 -24 -53 -65 -71 -91 -18 -27 -36 -46 -38 -43 -10 10 126 197 142 197 2 0
4 -4 4 -9z m777 -93 c19 -83 10 -84 -16 -1 -12 37 -25 75 -28 83 -4 10 -1 9
12 -3 10 -10 24 -46 32 -79z m-966 31 c-11 -24 -20 -41 -20 -37 -1 12 31 89
35 85 3 -2 -4 -24 -15 -48z m484 41 c-3 -5 -11 -10 -16 -10 -6 0 -7 5 -4 10 3
6 11 10 16 10 6 0 7 -4 4 -10z m-50 -32 c-4 -52 -22 -87 -66 -130 -22 -22 -54
-58 -70 -81 -16 -22 -29 -36 -29 -31 0 5 7 20 16 32 9 13 34 58 56 100 51 98
58 107 71 90 6 -9 7 -8 3 5 -4 14 9 44 21 47 1 0 0 -15 -2 -32z m188 -90 c-7
-57 -22 -84 -23 -41 0 27 17 83 26 83 1 0 0 -19 -3 -42z m387 -3 c0 -17 -2
-17 -10 -5 -5 8 -10 24 -10 35 0 17 2 17 10 5 5 -8 10 -24 10 -35z m-211 -20
c57 -152 65 -188 65 -292 -1 -108 -15 -166 -40 -156 -9 3 -33 -2 -55 -12 -32
-15 -44 -16 -65 -7 -14 7 -34 12 -44 12 -13 0 -25 12 -33 33 -8 18 -33 45 -55
61 -23 16 -42 31 -42 35 0 3 18 26 40 50 22 24 40 45 40 48 0 2 14 22 31 43
17 21 28 43 25 49 -4 5 -1 13 5 17 8 5 9 3 4 -6 -6 -9 -4 -11 4 -6 7 5 10 15
7 23 -3 8 -2 12 3 9 9 -6 56 84 67 129 9 38 21 30 43 -30z m-517 23 c-7 -7
-12 -8 -12 -2 0 14 12 26 19 19 2 -3 -1 -11 -7 -17z m-515 -80 c-3 -8 -6 -5
-6 6 -1 11 2 17 5 13 3 -3 4 -12 1 -19z m451 -39 c-16 -29 -48 -65 -48 -56 0
12 53 88 57 83 2 -2 -2 -14 -9 -27z m361 -28 c-12 -59 -25 -70 -15 -13 9 50
17 74 22 69 2 -2 -1 -27 -7 -56z m-824 -6 c-3 -26 -9 -44 -12 -41 -3 3 -2 26
2 51 3 26 9 44 12 41 3 -3 2 -26 -2 -51z m618 -7 c-30 -76 -65 -129 -90 -139
-50 -19 -55 -8 -18 35 14 16 44 55 67 87 24 33 46 59 50 59 4 0 0 -19 -9 -42z
m94 -94 c2 -65 0 -75 -13 -70 -9 3 -25 6 -37 6 -42 0 -50 14 -30 46 27 43 66
94 72 94 3 0 7 -34 8 -76z m-328 -49 c-20 -33 -39 -46 -39 -26 0 12 40 61 50
61 5 0 0 -16 -11 -35z m116 -35 c3 -5 -9 -16 -27 -24 -29 -13 -30 -14 -9 -15
l23 -1 -23 -20 c-13 -10 -21 -19 -16 -20 4 0 1 -12 -6 -27 -12 -24 -12 -33 -1
-60 15 -35 29 -46 19 -14 -10 31 5 68 31 80 33 15 34 14 34 -10 0 -12 5 -19
13 -16 6 2 17 -9 24 -25 10 -24 15 -27 35 -19 13 5 28 9 33 8 6 0 16 12 23 27
15 30 30 34 39 10 5 -15 7 -15 15 0 6 11 6 22 -1 30 -11 13 -5 26 11 26 5 0
16 -16 24 -35 20 -48 30 -44 26 10 -4 49 1 54 30 28 37 -33 7 -178 -46 -222
-32 -27 -300 5 -343 41 -9 7 -13 41 -13 117 0 105 0 107 28 123 30 19 68 23
77 8z m-889 -56 c-6 -22 -42 -51 -52 -41 -7 6 18 57 27 57 4 0 11 10 15 23 7
19 8 20 12 4 2 -10 1 -29 -2 -43z m976 47 c-14 -9 47 -23 103 -23 17 0 22 -2
13 -5 -10 -2 -15 -10 -11 -19 7 -18 -6 -18 -50 1 -20 8 -53 15 -73 15 l-36 0
23 20 c13 10 29 19 34 20 6 0 4 -4 -3 -9z m-542 -90 c-6 -12 -16 -19 -21 -15
-6 4 -4 13 7 25 21 24 29 18 14 -10z m607 9 c2 -8 -1 -22 -7 -30 -8 -13 -12
-12 -28 5 -10 11 -17 26 -14 33 6 18 46 11 49 -8z m-1074 -51 c20 -5 37 -15
37 -22 0 -7 3 -29 7 -50 l6 -39 -36 3 c-48 4 -54 -4 -21 -30 19 -15 41 -21 74
-21 33 0 50 -5 54 -15 3 -8 12 -12 20 -9 12 5 30 -2 85 -33 2 -1 -4 -14 -13
-28 -12 -19 -25 -25 -52 -25 -47 0 -35 -16 17 -23 26 -3 52 -15 68 -31 28 -29
11 -37 -25 -12 -27 19 -90 30 -98 18 -4 -6 11 -15 36 -20 l43 -9 -35 -7 c-24
-4 -58 0 -105 14 -104 30 -130 27 -213 -24 -40 -25 -72 -43 -72 -40 0 3 8 17
18 32 l17 26 -25 -17 c-40 -28 -49 -22 -43 26 12 100 31 140 118 245 47 56 89
102 93 102 4 0 24 -5 45 -11z m92 -77 c-8 -9 -34 31 -35 53 0 15 5 12 21 -14
11 -18 18 -36 14 -39z m1375 29 c0 -6 -4 -13 -10 -16 -5 -3 -10 1 -10 9 0 9 5
16 10 16 6 0 10 -4 10 -9z m50 -46 c0 -14 9 -35 19 -46 19 -20 19 -20 25 -1 4
11 15 27 26 37 19 18 20 17 20 -4 0 -46 -43 -95 -64 -74 -4 4 -24 6 -44 5 -23
-1 -45 4 -60 16 -30 24 -20 52 18 52 20 0 31 6 35 20 9 28 25 25 25 -5z
m-1895 -192 c-4 -21 -11 -52 -16 -70 -7 -20 -7 -51 -1 -82 9 -47 8 -52 -14
-66 -14 -9 -24 -11 -24 -5 0 6 -4 8 -10 5 -28 -17 2 166 35 216 14 21 28 39
31 39 3 0 2 -17 -1 -37z m835 -202 c0 -5 -6 -12 -12 -15 -7 -4 -4 -5 8 -3 11
2 49 -11 85 -29 79 -41 64 -43 -33 -5 -40 15 -82 32 -93 36 -19 7 -19 8 5 15
35 11 40 11 40 1z m-875 -125 c-41 -50 -45 -53 -45 -32 0 18 68 91 76 83 4 -3
-11 -26 -31 -51z m-72 -26 c-19 -36 -34 -51 -55 -55 -15 -4 -28 -10 -28 -15 0
-4 -7 -10 -15 -13 -12 -5 -12 -1 -4 21 13 33 46 65 59 57 6 -3 10 0 10 7 0 10
43 46 58 48 1 0 -10 -22 -25 -50z m-53 -125 c0 -8 -4 -15 -9 -15 -13 0 -22 16
-14 24 11 11 23 6 23 -9z m-34 -43 c-11 -11 -18 -11 -36 -2 -20 11 -21 12 -4
25 25 18 61 -2 40 -23z m-53 -37 c-7 -19 -19 -19 -26 -1 -3 8 -1 17 6 19 18 6
27 -2 20 -18z m-33 -45 c0 -5 -4 -10 -10 -10 -5 0 -10 5 -10 10 0 6 5 10 10
10 6 0 10 -4 10 -10z m465 -735 c-16 -8 -37 -14 -45 -14 -8 0 -1 7 15 14 17 8
37 14 45 14 8 0 2 -7 -15 -14z m45 -10 c-7 -8 -18 -15 -24 -15 -6 0 -2 7 8 15
25 19 32 19 16 0z m-40 -25 c0 -5 -5 -10 -11 -10 -5 0 -7 5 -4 10 3 6 8 10 11
10 2 0 4 -4 4 -10z m-195 -10 c-8 -13 -65 -43 -65 -34 0 4 7 16 17 26 17 19
59 26 48 8z m45 -27 c-8 -3 -24 -10 -35 -15 -20 -9 -20 -9 -1 6 11 9 27 16 35
15 14 0 14 -1 1 -6z m78 -29 c-9 -10 -21 -13 -29 -8 -9 5 -8 9 7 15 31 12 39
10 22 -7z m59 -4 c-3 -11 -1 -20 4 -20 5 0 9 9 9 20 0 11 4 20 9 20 5 0 5 -18
-1 -42 -9 -43 -18 -62 -18 -39 0 7 -5 9 -12 5 -8 -5 -9 -2 -5 11 6 14 3 16
-13 12 -19 -5 -19 -4 3 23 27 35 31 36 24 10z m-210 -69 c-5 -41 -3 -50 11
-54 10 -3 5 -5 -11 -6 -27 -1 -28 0 -22 37 9 51 15 72 22 72 3 0 3 -22 0 -49z
m-67 -103 c0 -26 -2 -29 -15 -18 -8 7 -15 23 -15 36 0 17 4 22 15 18 9 -4 15
-19 15 -36z m152 -35 c22 -20 11 -36 -43 -63 -41 -22 -54 -15 -61 30 -2 14 -9
24 -16 23 -7 -2 -12 9 -12 30 l0 34 58 -19 c31 -11 65 -27 74 -35z"/>
<path d="M1321 1939 c-47 -31 -48 -30 34 -43 17 -2 41 -7 55 -10 14 -4 19 -4
13 0 -7 3 -13 12 -13 20 0 9 -11 14 -30 14 -28 0 -30 2 -20 21 7 11 10 22 8
23 -2 2 -23 -10 -47 -25z"/>
<path d="M1786 2175 c-3 -8 -1 -15 4 -15 6 0 10 7 10 15 0 8 -2 15 -4 15 -2 0
-6 -7 -10 -15z"/>
<path d="M3440 2166 c14 -8 32 -16 40 -16 8 0 37 -12 65 -25 27 -13 51 -22 53
-20 8 7 -48 37 -95 50 -26 7 -57 16 -68 20 -13 4 -12 1 5 -9z"/>
<path d="M3355 2160 c-3 -5 -1 -10 4 -10 6 0 11 5 11 10 0 6 -2 10 -4 10 -3 0
-8 -4 -11 -10z"/>
<path d="M3348 2133 c6 -2 18 -2 25 0 6 3 1 5 -13 5 -14 0 -19 -2 -12 -5z"/>
<path d="M1807 2123 c-4 -3 -7 -16 -7 -27 1 -21 1 -21 12 -1 6 11 16 23 22 27
7 5 5 8 -5 8 -9 0 -19 -3 -22 -7z"/>
<path d="M3254 2103 c-29 -31 -25 -42 8 -19 12 9 19 16 14 16 -5 0 -3 7 4 15
22 26 0 16 -26 -12z"/>
<path d="M3212 1955 c-64 -16 -83 -31 -27 -21 110 19 154 24 181 19 19 -3 25
-1 16 5 -19 13 -110 12 -170 -3z"/>
<path d="M3433 1953 c-7 -3 6 -27 33 -64 25 -32 47 -59 50 -59 5 0 -35 71 -51
90 -7 8 -14 20 -16 26 -2 6 -9 9 -16 7z"/>
<path d="M2731 1914 c0 -11 3 -14 6 -6 3 7 2 16 -1 19 -3 4 -6 -2 -5 -13z"/>
<path d="M2620 1844 c-32 -12 -32 -13 -9 -13 14 -1 34 6 45 14 23 17 11 17
-36 -1z"/>
<path d="M3557 1773 c50 -78 63 -95 63 -80 0 24 -53 107 -68 107 -9 0 -8 -8 5
-27z"/>
<path d="M3630 1744 c0 -14 3 -14 15 -4 8 7 15 14 15 16 0 2 -7 4 -15 4 -8 0
-15 -7 -15 -16z"/>
<path d="M2830 1716 c0 -8 -6 -16 -12 -19 -27 -9 -1 -14 42 -8 l45 6 -25 18
c-30 21 -50 22 -50 3z"/>
<path d="M2203 1705 c0 -8 7 -15 15 -15 7 0 12 5 10 12 -6 18 -25 21 -25 3z"/>
<path d="M2940 1692 c0 -4 9 -8 20 -9 11 -1 18 2 15 8 -7 11 -35 12 -35 1z"/>
<path d="M2485 1680 c-16 -7 -17 -9 -3 -9 9 -1 20 4 23 9 7 11 7 11 -20 0z"/>
<path d="M3070 1669 c0 -5 5 -7 10 -4 6 3 10 8 10 11 0 2 -4 4 -10 4 -5 0 -10
-5 -10 -11z"/>
<path d="M2545 1630 c28 -12 37 -12 30 0 -3 6 -16 10 -28 9 -21 0 -21 -1 -2
-9z"/>
<path d="M2635 1630 c-3 -5 -15 -10 -27 -10 -16 0 -18 -3 -9 -14 15 -18 169
-96 189 -96 9 0 -21 19 -66 43 -73 37 -82 45 -77 65 6 23 1 29 -10 12z"/>
<path d="M2877 1623 c-4 -3 -7 -11 -7 -17 0 -6 5 -5 12 2 6 6 9 14 7 17 -3 3
-9 2 -12 -2z"/>
<path d="M3425 1620 c-4 -6 -15 -8 -25 -5 -14 4 -17 2 -14 -13 4 -14 -11 -28
-63 -61 -82 -53 -103 -60 -104 -35 0 12 -8 3 -19 -21 -26 -56 -24 -68 5 -40
29 30 39 31 72 5 32 -25 48 -25 50 -1 2 21 -23 36 -32 20 -7 -11 -25 -3 -25
12 0 5 5 9 10 9 6 0 23 11 38 25 14 13 38 29 53 34 26 9 28 8 34 -29 7 -44 -8
-82 -32 -78 -9 2 -18 -3 -20 -9 -8 -23 123 32 132 55 3 10 0 10 -16 1 -27 -14
-35 -3 -44 60 -5 36 -3 47 10 57 9 7 12 15 6 18 -5 4 -13 2 -16 -4z"/>
<path d="M3515 1590 c-5 -7 -19 -10 -37 -6 -18 3 -27 2 -23 -4 8 -13 62 -13
70 1 4 6 5 13 2 15 -3 3 -8 0 -12 -6z"/>
<path d="M2821 1521 c-10 -6 -10 -10 -1 -16 13 -8 24 -1 19 14 -3 6 -10 7 -18
2z"/>
<path d="M3357 1483 c-4 -3 -7 -11 -7 -17 0 -6 5 -5 12 2 6 6 9 14 7 17 -3 3
-9 2 -12 -2z"/>
<path d="M2630 1437 c0 -2 15 -14 33 -27 20 -15 27 -17 18 -6 -13 16 -51 41
-51 33z"/>
<path d="M2904 1425 c32 -93 30 -208 -5 -276 -20 -40 -26 -67 -8 -36 6 9 15
14 21 11 7 -5 8 -2 4 5 -5 7 -1 20 7 29 8 9 17 33 21 52 9 50 -10 187 -30 213
-15 20 -16 20 -10 2z"/>
<path d="M2812 1184 c-5 -153 -30 -213 -129 -320 -23 -25 -27 -34 -15 -34 13
0 128 111 206 198 18 21 18 21 -6 17 l-24 -5 -2 103 c-1 56 -5 110 -8 120 -12
38 -19 12 -22 -79z"/>
<path d="M2896 1074 c-5 -14 -4 -15 9 -4 17 14 19 20 6 20 -5 0 -12 -7 -15
-16z"/>
<path d="M2418 813 c12 -2 32 -2 45 0 12 2 2 4 -23 4 -25 0 -35 -2 -22 -4z"/>
<path d="M2270 800 c0 -20 -193 -100 -244 -100 -21 0 -27 -3 -17 -9 22 -14 73
-5 125 23 27 14 55 26 63 26 8 0 33 9 56 21 23 12 60 27 82 34 l40 14 -52 0
c-29 1 -53 -3 -53 -9z"/>
<path d="M1883 683 c9 -2 25 -2 35 0 9 3 1 5 -18 5 -19 0 -27 -2 -17 -5z"/>
</g>
</svg>
